<?xml version="1.0" encoding="UTF-8"?>
<!DOCTYPE svg PUBLIC "-//W3C//DTD SVG 1.1//EN" "http://www.w3.org/Graphics/SVG/1.1/DTD/svg11.dtd">
<svg xmlns="http://www.w3.org/2000/svg" version="1.1" width="48px" height="48px" style="shape-rendering:geometricPrecision; text-rendering:geometricPrecision; image-rendering:optimizeQuality; fill-rule:evenodd; clip-rule:evenodd" xmlns:xlink="http://www.w3.org/1999/xlink">
<g><path style="opacity:0.905" fill="#000000" d="M 22.5,-0.5 C 23.1667,-0.5 23.8333,-0.5 24.5,-0.5C 25.6253,1.12879 26.9586,2.62879 28.5,4C 23.1667,9.33333 17.8333,14.6667 12.5,20C 24.1619,20.4999 35.8286,20.6665 47.5,20.5C 47.5,22.5 47.5,24.5 47.5,26.5C 35.8286,26.3335 24.1619,26.5001 12.5,27C 17.8333,32.3333 23.1667,37.6667 28.5,43C 26.9586,44.3712 25.6253,45.8712 24.5,47.5C 23.8333,47.5 23.1667,47.5 22.5,47.5C 15.1667,39.5 7.5,31.8333 -0.5,24.5C -0.5,23.8333 -0.5,23.1667 -0.5,22.5C 7.5,15.1667 15.1667,7.5 22.5,-0.5 Z"/></g>
</svg>
