<svg width="24" height="25" viewBox="0 0 24 25" fill="none" xmlns="http://www.w3.org/2000/svg">
<g clip-path="url(#clip0_1292_11321)">
<path d="M12 0.5C7.78289 0.5 4.26562 3.89703 4.26562 8.23438C4.26562 9.88447 4.76147 11.3559 5.71308 12.7347L11.4081 21.6212C11.6844 22.0532 12.3162 22.0524 12.5919 21.6212L18.3116 12.7044C19.2428 11.3881 19.7344 9.84252 19.7344 8.23438C19.7344 3.96964 16.2647 0.5 12 0.5ZM12 11.75C10.0616 11.75 8.48438 10.1728 8.48438 8.23438C8.48438 6.29595 10.0616 4.71875 12 4.71875C13.9384 4.71875 15.5156 6.29595 15.5156 8.23438C15.5156 10.1728 13.9384 11.75 12 11.75Z" fill="#303030"/>
<path d="M17.4967 16.6582L13.9562 22.1935C13.0398 23.6224 10.9551 23.6177 10.0431 22.1949L6.49678 16.6597C3.37659 17.3811 1.45312 18.7026 1.45312 20.2819C1.45312 23.0223 6.88725 24.5006 12 24.5006C17.1128 24.5006 22.5469 23.0223 22.5469 20.2819C22.5469 18.7015 20.6207 17.3792 17.4967 16.6582Z" fill="#303030"/>
</g>
<defs>
<clipPath id="clip0_1292_11321">
<rect width="24" height="24" fill="white" transform="translate(0 0.5)"/>
</clipPath>
</defs>
</svg>
