<svg width="14" height="19" viewBox="0 0 14 19" fill="none" xmlns="http://www.w3.org/2000/svg">
<path d="M2.3784 0.127276C2.10132 0.121182 1.82924 0.201501 1.59996 0.357191C1.37069 0.512881 1.19562 0.736246 1.0991 0.996032C1.00257 1.25582 0.989391 1.53918 1.06138 1.80681C1.13337 2.07443 1.28696 2.31287 1.50079 2.48917L9.65964 9.47875L1.50079 16.4659C1.35287 16.5746 1.229 16.7126 1.13692 16.8714C1.04484 17.0302 0.986539 17.2064 0.965673 17.3887C0.944808 17.5711 0.961824 17.7558 1.01566 17.9313C1.06949 18.1068 1.15898 18.2694 1.27852 18.4087C1.39806 18.548 1.54508 18.661 1.71037 18.7409C1.87565 18.8207 2.05565 18.8656 2.23909 18.8727C2.42252 18.8797 2.60544 18.849 2.77639 18.7821C2.94734 18.7152 3.10264 18.6137 3.23256 18.484L12.5737 10.4918C12.7204 10.3666 12.8382 10.2112 12.919 10.0361C12.9997 9.86096 13.0416 9.67036 13.0416 9.47752C13.0416 9.28467 12.9997 9.09407 12.919 8.91895C12.8382 8.74384 12.7204 8.58831 12.5737 8.46312L3.23256 0.463152C2.99659 0.253555 2.69392 0.134702 2.3784 0.127276Z" fill="black"/>
</svg>
