<svg width="110" height="110" viewBox="0 0 110 110" fill="none" xmlns="http://www.w3.org/2000/svg">
<g clip-path="url(#clip0_1292_12729)">
<path fill-rule="evenodd" clip-rule="evenodd" d="M55 0C24.6641 0 0 24.6641 0 55C0 85.3359 24.6641 110 55 110C85.3359 110 110 85.3359 110 55C110 24.6641 85.3359 0 55 0Z" fill="#34B339"/>
<path d="M44.4082 80.1582C37.3828 73.1328 30.4004 66.043 23.3535 59.0176C22.5801 58.2441 22.5801 56.9551 23.3535 56.1816L31.4531 48.082C32.2266 47.3086 33.5156 47.3086 34.2891 48.082L45.8691 59.6621L75.6465 29.8633C76.4414 29.0898 77.709 29.0898 78.5039 29.8633L86.625 37.9844C87.4199 38.7793 87.4199 40.0469 86.625 40.8203L47.2441 80.1582C46.4707 80.9531 45.2031 80.9531 44.4082 80.1582Z" fill="white"/>
</g>
<defs>
<clipPath id="clip0_1292_12729">
<rect width="110" height="110" fill="white"/>
</clipPath>
</defs>
</svg>
