<svg width="144" height="46" viewBox="0 0 144 46" fill="none" xmlns="http://www.w3.org/2000/svg">
<g clip-path="url(#clip0_1292_10972)">
<path d="M61.0195 15.3408H63.9452L67.1872 20.5551L70.4292 15.3408H73.3549V27.6719H70.6578V19.6212L67.1854 24.8884H67.1159L63.6801 19.6742V27.6719H61.0195V15.3408Z" fill="white"/>
<path d="M76.3164 15.3408H85.6219V17.7533H79.0135V20.2554H84.8301V22.6678H79.0135V25.2576H85.7097V27.6719H76.3164V15.3408Z" fill="white"/>
<path d="M88.1211 15.3417H92.932C96.8085 15.3417 99.4873 18.0009 99.4873 21.4716V21.5063C99.4873 24.977 96.8085 27.671 92.932 27.671H88.1211V15.3398V15.3417ZM92.932 25.2237C95.1519 25.2237 96.6513 23.7251 96.6513 21.541V21.5063C96.6513 19.3223 95.1537 17.7889 92.932 17.7889H90.8347V25.2237H92.932Z" fill="white"/>
<path d="M102.027 15.3408H104.741V27.6719H102.027V15.3408Z" fill="white"/>
<path d="M107.279 21.5422V21.5075C107.279 18.0021 109.923 15.1309 113.712 15.1309C116.038 15.1309 117.431 15.9058 118.576 17.0334L116.848 19.0237C115.897 18.1611 114.926 17.6329 113.694 17.6329C111.615 17.6329 110.115 19.3582 110.115 21.4728V21.5075C110.115 23.6221 111.578 25.3821 113.694 25.3821C115.104 25.3821 115.967 24.8192 116.936 23.9383L118.662 25.6819C117.393 27.038 115.983 27.8842 113.604 27.8842C109.974 27.8842 107.277 25.0842 107.277 21.5422H107.279Z" fill="white"/>
<path d="M125.062 15.2539H127.565L132.851 27.6728H130.013L128.885 24.9075H123.668L122.54 27.6728H119.773L125.06 15.2539H125.062ZM127.916 22.5115L126.278 18.5126L124.639 22.5115H127.918H127.916Z" fill="white"/>
<path d="M134.75 15.3417H137.464V25.2055H143.615V27.671H134.75V15.3398V15.3417Z" fill="white"/>
<path d="M60.0391 40.7019L61.3081 39.1831C62.1858 39.9068 63.1055 40.3674 64.221 40.3674C65.0987 40.3674 65.6289 40.0183 65.6289 39.4481V39.4207C65.6289 38.8779 65.2943 38.5982 63.6632 38.1815C61.6976 37.6808 60.4304 37.1361 60.4304 35.2006V35.1732C60.4304 33.4041 61.8512 32.2344 63.8443 32.2344C65.2651 32.2344 66.4774 32.6803 67.4685 33.4735L66.353 35.0892C65.4881 34.4897 64.6379 34.1278 63.8168 34.1278C62.9958 34.1278 62.5625 34.5043 62.5625 34.9777V35.0051C62.5625 35.6448 62.9812 35.8549 64.6671 36.2863C66.6456 36.8017 67.761 37.5126 67.761 39.2105V39.2379C67.761 41.1734 66.2836 42.2608 64.1789 42.2608C62.7014 42.2608 61.2112 41.7454 60.0391 40.7019Z" fill="#EFA220"/>
<path d="M69.1992 37.275V37.2476C69.1992 34.475 71.388 32.2051 74.3978 32.2051C77.4076 32.2051 79.5689 34.4476 79.5689 37.2201V37.2476C79.5689 40.0201 77.3801 42.29 74.3704 42.29C71.3606 42.29 69.1992 40.0475 69.1992 37.275ZM77.3235 37.275V37.2476C77.3235 35.5753 76.0965 34.1826 74.3685 34.1826C72.6405 34.1826 71.441 35.5478 71.441 37.2183V37.2457C71.441 38.918 72.668 40.3107 74.396 40.3107C76.1239 40.3107 77.3235 38.9454 77.3235 37.2731V37.275Z" fill="#EFA220"/>
<path d="M81.4805 32.3711H83.6272V40.1715H88.4911V42.1216H81.4805V32.3711Z" fill="#EFA220"/>
<path d="M89.6758 37.9436V32.3711H91.8225V37.8869C91.8225 39.4752 92.6161 40.2976 93.9272 40.2976C95.2382 40.2976 96.0318 39.5044 96.0318 37.9564V32.3711H98.1785V37.8741C98.1785 40.8276 96.52 42.2751 93.8997 42.2751C91.2794 42.2751 89.6776 40.813 89.6776 37.9436H89.6758Z" fill="#EFA220"/>
<path d="M102.64 34.3486H99.6719V32.3711H107.756V34.3486H104.788V42.1216H102.641V34.3486H102.64Z" fill="#EFA220"/>
<path d="M109.5 32.3711H111.647V42.1216H109.5V32.3711Z" fill="#EFA220"/>
<path d="M113.652 37.275V37.2476C113.652 34.475 115.841 32.2051 118.851 32.2051C121.861 32.2051 124.022 34.4476 124.022 37.2201V37.2476C124.022 40.0201 121.833 42.29 118.823 42.29C115.814 42.29 113.652 40.0475 113.652 37.275ZM121.777 37.275V37.2476C121.777 35.5753 120.55 34.1826 118.822 34.1826C117.094 34.1826 115.894 35.5478 115.894 37.2183V37.2457C115.894 38.918 117.121 40.3107 118.849 40.3107C120.577 40.3107 121.777 38.9454 121.777 37.2731V37.275Z" fill="#EFA220"/>
<path d="M125.938 32.3711H127.916L132.487 38.3749V32.3711H134.607V42.1216H132.782L128.057 35.9222V42.1216H125.939V32.3711H125.938Z" fill="#EFA220"/>
<path d="M136.281 40.7019L137.55 39.1831C138.428 39.9068 139.348 40.3674 140.463 40.3674C141.341 40.3674 141.871 40.0183 141.871 39.4481V39.4207C141.871 38.8779 141.536 38.5982 139.905 38.1815C137.94 37.6808 136.673 37.1361 136.673 35.2006V35.1732C136.673 33.4041 138.093 32.2344 140.086 32.2344C141.507 32.2344 142.72 32.6803 143.711 33.4735L142.595 35.0892C141.73 34.4897 140.88 34.1278 140.059 34.1278C139.238 34.1278 138.805 34.5043 138.805 34.9777V35.0051C138.805 35.6448 139.223 35.8549 140.909 36.2863C142.888 36.8017 144.003 37.5126 144.003 39.2105V39.2379C144.003 41.1734 142.526 42.2608 140.421 42.2608C138.944 42.2608 137.453 41.7454 136.281 40.7019Z" fill="#EFA220"/>
<path d="M63.1541 7.27929H61.5742V6.22656H65.8768V7.27929H64.2969V11.4171H63.1541V7.27929Z" fill="white"/>
<path d="M66.7539 6.22461H67.8967V8.27888H70.0032V6.22461H71.1461V11.4151H70.0032V9.33161H67.8967V11.4151H66.7539V6.22461Z" fill="white"/>
<path d="M72.3924 6.22461H76.3092V7.24078H73.5262V8.2935H75.9746V9.30967H73.5262V10.4008H76.3458V11.4169H72.3906V6.22644L72.3924 6.22461Z" fill="white"/>
<path d="M39.7501 14.2279C41.1892 12.095 44.0838 11.5321 46.2177 12.9704C48.3516 14.4088 48.9148 17.302 47.4757 19.4348C46.0367 21.5677 43.1421 22.1306 41.0082 20.6922C38.8743 19.2539 38.3111 16.3607 39.7501 14.2279Z" fill="white"/>
<path d="M45.8263 31.0242C45.8263 31.0242 45.4643 26.3692 39.7684 22.5312C34.0724 18.6931 29.6199 20.1022 29.6199 20.1022C25.3448 25.5559 24.3299 34.292 24.8785 44.6054C34.6484 41.2462 42.3704 37.0299 45.8263 31.0242Z" fill="white"/>
<path d="M8.63468 19.2573C9.9761 17.0625 9.28343 14.1964 7.08756 12.8556C4.8917 11.5149 2.02417 12.2072 0.682751 14.402C-0.658663 16.5968 0.034006 19.4629 2.22987 20.8036C4.42574 22.1444 7.29327 21.452 8.63468 19.2573Z" fill="white"/>
<path d="M2.44531 31.0242C2.44531 31.0242 2.80736 26.3692 8.50329 22.5312C14.1992 18.6931 18.6517 20.1022 18.6517 20.1022C22.9269 25.5559 23.9417 34.292 23.3932 44.6054C13.6232 41.2462 5.90127 37.0299 2.44531 31.0242Z" fill="white"/>
<path d="M29.3253 7.00638C30.2003 4.1421 28.5866 1.11114 25.7209 0.236535C22.8552 -0.638069 19.8227 0.97488 18.9477 3.83916C18.0726 6.70343 19.6864 9.7344 22.5521 10.609C25.4178 11.4836 28.4502 9.87066 29.3253 7.00638Z" fill="url(#paint0_linear_1292_10972)"/>
<path d="M35.5163 17.6861C35.5163 17.6861 32.1353 13.4277 24.1372 13.4277C16.1392 13.4277 12.7582 17.6861 12.7582 17.6861C12.184 25.7333 16.8925 34.8295 24.1372 44.4283C31.3838 34.8295 36.0923 25.7333 35.5163 17.6861Z" fill="url(#paint1_linear_1292_10972)"/>
<path d="M24.1351 13.4273C32.135 13.4273 35.5141 17.6857 35.5141 17.6857C36.0883 25.7328 31.3798 34.829 24.1351 44.4278C16.8885 34.829 12.18 25.7328 12.756 17.6857C12.756 17.6857 16.137 13.4273 24.1351 13.4273ZM24.1351 12.4824C15.7749 12.4824 12.1635 16.9108 12.0136 17.0991L11.8326 17.3275L11.8125 17.6181C11.5254 21.6371 12.4543 25.9686 14.6504 30.8612C16.5649 35.1269 19.4211 39.7509 23.3817 44.9962L24.1369 45.9959L24.8921 44.9962C28.8509 39.7509 31.7071 35.1269 33.6234 30.8612C35.8195 25.9686 36.7484 21.6371 36.4613 17.6181L36.4412 17.3275L36.2602 17.0991C36.1102 16.9108 32.4988 12.4824 24.1387 12.4824H24.1351Z" fill="white"/>
<path d="M30.6301 17.6439C30.5899 16.9768 30.3833 15.8766 29.5513 14.8805C28.5291 13.6596 26.898 12.9743 24.7056 12.8427C19.3882 12.5228 17.8924 15.8802 17.5487 16.9713C17.2579 17.1267 16.9507 17.3899 16.6582 17.823C15.1643 20.0326 16.905 22.9587 16.98 23.083L18.1137 22.3976C18.0991 22.3738 16.7478 20.0546 17.7571 18.565C17.8778 18.3877 18.1137 18.0935 18.3423 18.0935C18.6495 18.099 19.07 18.5504 19.2565 18.8501L19.2821 18.894L19.3224 18.9397C19.3571 18.9799 20.158 19.9613 19.7064 22.0503L21.001 22.33C21.5441 19.8133 20.5914 18.4133 20.361 18.1209C20.2403 17.9345 19.8015 17.3076 19.1523 16.9768C19.593 15.9807 20.9132 14.1293 24.616 14.3541C26.3659 14.4601 27.6313 14.9591 28.3773 15.8364C28.9186 16.4742 29.074 17.1961 29.1142 17.6457C28.2786 17.9546 27.6825 18.7569 27.6825 19.6982C27.6825 20.9062 28.6663 21.8895 29.8749 21.8895C31.0836 21.8895 32.0674 20.9062 32.0674 19.6982C32.0674 18.7569 31.4676 17.9528 30.6319 17.6439H30.6301ZM29.8731 20.5645C29.394 20.5645 29.0045 20.1752 29.0045 19.6963C29.0045 19.2175 29.394 18.8282 29.8731 18.8282C30.3522 18.8282 30.7417 19.2175 30.7417 19.6963C30.7417 20.1752 30.3522 20.5645 29.8731 20.5645Z" fill="white"/>
</g>
<defs>
<linearGradient id="paint0_linear_1292_10972" x1="24.1367" y1="10.845" x2="24.1367" y2="-0.000251657" gradientUnits="userSpaceOnUse">
<stop stop-color="#EFA220"/>
<stop offset="0.37" stop-color="#EFA420"/>
<stop offset="0.57" stop-color="#F0AC22"/>
<stop offset="0.72" stop-color="#F2B925"/>
<stop offset="0.85" stop-color="#F4CC2A"/>
<stop offset="0.97" stop-color="#F7E530"/>
<stop offset="1" stop-color="#F9ED32"/>
</linearGradient>
<linearGradient id="paint1_linear_1292_10972" x1="24.1372" y1="13.4277" x2="24.1372" y2="44.4301" gradientUnits="userSpaceOnUse">
<stop stop-color="#EFA220"/>
<stop offset="0.36" stop-color="#ECA020"/>
<stop offset="0.55" stop-color="#E49A20"/>
<stop offset="0.7" stop-color="#D78F22"/>
<stop offset="0.83" stop-color="#C48023"/>
<stop offset="0.95" stop-color="#AB6D25"/>
<stop offset="1" stop-color="#9E6227"/>
</linearGradient>
<clipPath id="clip0_1292_10972">
<rect width="144" height="46" fill="white"/>
</clipPath>
</defs>
</svg>
