<svg width="20" height="20" viewBox="0 0 20 20" fill="none" xmlns="http://www.w3.org/2000/svg">
<path d="M20 4C20 3.44773 19.5523 3 19 3H1C0.447735 3 0 3.44773 0 4C0 4.55227 0.447735 5 1 5H19C19.5523 5 20 4.55223 20 4ZM1 9H19C19.5523 9 20 9.44777 20 10C20 10.5523 19.5523 11 19 11H1C0.447735 11 0 10.5523 0 10C0 9.44777 0.447735 9 1 9ZM1 15H9C9.55223 15 10 15.4477 10 16C10 16.5522 9.55223 17 9 17H1C0.447735 17 0 16.5522 0 16C0 15.4477 0.447735 15 1 15Z" fill="#0E0E0E"/>
<path d="M18.5 13L16 15.5L18.5 18" stroke="black" stroke-width="2"/>
</svg>
